<svg width="209" height="37" viewBox="0 0 209 37" fill="none" xmlns="http://www.w3.org/2000/svg">
<path d="M8.84966 29.6535C8.01507 29.6535 7.41732 29.4731 7.05642 29.1122C6.69551 28.7287 6.51506 28.0182 6.51506 26.9806C6.51506 26.2814 6.58273 25.3904 6.71807 24.3077C6.87597 23.2024 7.12409 21.6911 7.46244 19.7738C8.0489 16.2324 8.51131 13.1648 8.84966 10.5708C9.05267 8.94669 9.15417 7.5933 9.15417 6.51059C9.15417 5.49555 8.78199 4.98802 8.03763 4.98802C7.45116 4.98802 6.74063 5.29254 5.90604 5.90156C5.094 6.48803 4.19174 7.4354 3.19926 8.74368C2.88347 9.17225 2.53384 9.38654 2.15038 9.38654C1.83459 9.38654 1.55263 9.23992 1.30451 8.94669C1.07895 8.6309 0.966165 8.28127 0.966165 7.89781C0.966165 7.53691 1.03383 7.176 1.16917 6.8151C1.32707 6.43164 1.57519 6.00307 1.91354 5.52938C2.99625 4.0181 4.20302 2.85644 5.53385 2.0444C6.86469 1.20981 8.19552 0.792517 9.52635 0.792517C10.767 0.792517 11.7143 1.18726 12.3685 1.97673C13.0452 2.76621 13.3835 3.91659 13.3835 5.42788C13.3835 6.0369 13.3271 6.75871 13.2143 7.5933C13.1016 8.40533 13.0001 9.07075 12.9098 9.58955C12.8196 10.1083 12.7519 10.4693 12.7068 10.6723C13.9925 6.99555 15.4362 4.43539 17.0377 2.99178C18.6392 1.5256 20.3986 0.792517 22.3159 0.792517C23.7821 0.792517 24.9324 1.31132 25.767 2.34892C26.6242 3.38651 27.0527 4.85269 27.0527 6.74743C27.0527 7.49179 26.9512 8.41661 26.7482 9.52188C27.8761 6.40908 29.1956 4.17599 30.7069 2.8226C32.2182 1.46921 33.955 0.792517 35.9174 0.792517C37.4964 0.792517 38.7032 1.30004 39.5378 2.31508C40.3949 3.33012 40.8235 4.75118 40.8235 6.57826C40.8235 7.57074 40.6769 8.77752 40.3836 10.1986L38.3197 19.8753C38.0942 21.0031 37.9814 21.9731 37.9814 22.7851C37.9814 23.7325 38.1957 24.443 38.6242 24.9167C39.0754 25.3904 39.6957 25.6272 40.4851 25.6272C41.2295 25.6272 41.9513 25.3791 42.6506 24.8829C43.3724 24.3866 44.2182 23.5633 45.1882 22.4129C45.4588 22.0971 45.7634 21.9392 46.1017 21.9392C46.3949 21.9392 46.6205 22.0746 46.7784 22.3452C46.9589 22.6159 47.0491 22.9881 47.0491 23.4618C47.0491 24.3415 46.8348 25.0407 46.4062 25.5595C45.2333 26.9806 44.0716 28.0182 42.9212 28.6723C41.7709 29.3265 40.5641 29.6535 39.3009 29.6535C37.3836 29.6535 35.8836 29.0896 34.8009 27.9618C33.7182 26.8114 33.1768 25.2776 33.1768 23.3603C33.1768 22.0295 33.4475 20.1009 33.9889 17.5745L35.3423 11.3828C35.3874 11.1798 35.4663 10.8189 35.5791 10.3001C35.6919 9.78128 35.7821 9.29632 35.8498 8.84519C35.9174 8.3715 35.9513 7.90909 35.9513 7.45796C35.9513 6.66848 35.7934 6.08201 35.4776 5.69856C35.1844 5.29254 34.7558 5.08953 34.1919 5.08953C33.1317 5.08953 32.0152 5.7775 30.8422 7.15345C29.6919 8.50684 28.5866 10.7625 27.5264 13.9204C26.4888 17.0783 25.643 21.1836 24.9888 26.2362C24.8309 27.5896 24.549 28.5032 24.143 28.9769C23.7595 29.428 23.1279 29.6535 22.2482 29.6535C21.4813 29.6535 20.9174 29.4731 20.5565 29.1122C20.2181 28.7513 20.049 28.0746 20.049 27.0821C20.049 26.1573 20.173 24.9505 20.4211 23.4618C20.6693 21.9505 20.9851 20.1798 21.3685 18.1497C22.4061 12.6911 22.9249 9.17225 22.9249 7.5933C22.9249 6.73615 22.7557 6.10457 22.4174 5.69856C22.1016 5.29254 21.6166 5.08953 20.9625 5.08953C19.8572 5.08953 18.7181 5.72111 17.5452 6.98427C16.3722 8.22488 15.2219 10.4467 14.094 13.6497C12.9888 16.8302 12.064 21.1385 11.3196 26.5746C11.1617 27.725 10.9249 28.5257 10.6091 28.9769C10.3158 29.428 9.72936 29.6535 8.84966 29.6535ZM51.2429 29.8448C49.3926 29.8448 47.7945 29.4603 46.4488 28.6914C45.1112 27.9144 44.0819 26.817 43.3609 25.3992C42.64 23.9734 42.2796 22.2953 42.2796 20.3649C42.2796 18.4665 42.64 16.8004 43.3609 15.3665C44.0899 13.9247 45.1072 12.8033 46.4128 12.0023C47.7185 11.1933 49.2524 10.7888 51.0146 10.7888C52.1521 10.7888 53.2254 10.973 54.2347 11.3415C55.252 11.7019 56.1491 12.2626 56.9261 13.0236C57.7111 13.7845 58.3279 14.7538 58.7764 15.9313C59.225 17.1007 59.4493 18.4945 59.4493 20.1125V21.4462H44.3222V18.5145H55.28C55.272 17.6815 55.0918 16.9405 54.7393 16.2917C54.3869 15.6349 53.8943 15.1182 53.2615 14.7418C52.6367 14.3653 51.9077 14.177 51.0747 14.177C50.1856 14.177 49.4046 14.3933 48.7317 14.8259C48.0589 15.2504 47.5342 15.8111 47.1577 16.508C46.7893 17.1969 46.601 17.9538 46.593 18.7789V21.3381C46.593 22.4114 46.7893 23.3326 47.1818 24.1016C47.5743 24.8625 48.123 25.4473 48.8279 25.8558C49.5327 26.2563 50.3578 26.4566 51.303 26.4566C51.9358 26.4566 52.5085 26.3684 53.0212 26.1922C53.5338 26.008 53.9784 25.7396 54.3548 25.3872C54.7313 25.0348 55.0157 24.5982 55.2079 24.0775L59.269 24.5341C59.0127 25.6075 58.5241 26.5447 57.8032 27.3457C57.0903 28.1387 56.1771 28.7555 55.0637 29.196C53.9503 29.6286 52.6767 29.8448 51.2429 29.8448ZM61.268 29.4844V11.0291H65.4253V14.165H65.6415C66.026 13.1077 66.6628 12.2826 67.5519 11.6899C68.4411 11.0891 69.5024 10.7888 70.736 10.7888C71.9855 10.7888 73.0389 11.0931 73.896 11.7019C74.761 12.3027 75.3698 13.1237 75.7223 14.165H75.9145C76.323 13.1397 77.0119 12.3227 77.9811 11.7139C78.9583 11.0972 80.1158 10.7888 81.4535 10.7888C83.1516 10.7888 84.5374 11.3254 85.6108 12.3988C86.6841 13.4721 87.2208 15.0381 87.2208 17.0967V29.4844H82.8593V17.7696C82.8593 16.6241 82.5549 15.7871 81.9461 15.2584C81.3374 14.7217 80.5924 14.4534 79.7113 14.4534C78.662 14.4534 77.8409 14.7818 77.2482 15.4386C76.6634 16.0875 76.3711 16.9325 76.3711 17.9738V29.4844H72.1057V17.5894C72.1057 16.6361 71.8173 15.8752 71.2406 15.3065C70.6719 14.7377 69.9269 14.4534 69.0058 14.4534C68.381 14.4534 67.8123 14.6136 67.2996 14.934C66.787 15.2464 66.3785 15.691 66.0741 16.2677C65.7697 16.8364 65.6175 17.5012 65.6175 18.2622V29.4844H61.268ZM97.8226 29.8448C96.0203 29.8448 94.4584 29.4483 93.1367 28.6553C91.815 27.8623 90.7897 26.7529 90.0608 25.3271C89.3399 23.9013 88.9794 22.2352 88.9794 20.3288C88.9794 18.4224 89.3399 16.7523 90.0608 15.3185C90.7897 13.8847 91.815 12.7713 93.1367 11.9783C94.4584 11.1853 96.0203 10.7888 97.8226 10.7888C99.6249 10.7888 101.187 11.1853 102.509 11.9783C103.83 12.7713 104.851 13.8847 105.572 15.3185C106.301 16.7523 106.666 18.4224 106.666 20.3288C106.666 22.2352 106.301 23.9013 105.572 25.3271C104.851 26.7529 103.83 27.8623 102.509 28.6553C101.187 29.4483 99.6249 29.8448 97.8226 29.8448ZM97.8466 26.3604C98.8239 26.3604 99.6409 26.0921 100.298 25.5554C100.955 25.0107 101.443 24.2818 101.764 23.3687C102.092 22.4555 102.256 21.4382 102.256 20.3168C102.256 19.1874 102.092 18.1661 101.764 17.2529C101.443 16.3318 100.955 15.5988 100.298 15.0541C99.6409 14.5095 98.8239 14.2371 97.8466 14.2371C96.8454 14.2371 96.0123 14.5095 95.3475 15.0541C94.6907 15.5988 94.198 16.3318 93.8696 17.2529C93.5492 18.1661 93.389 19.1874 93.389 20.3168C93.389 21.4382 93.5492 22.4555 93.8696 23.3687C94.198 24.2818 94.6907 25.0107 95.3475 25.5554C96.0123 26.0921 96.8454 26.3604 97.8466 26.3604ZM108.497 29.4844V11.0291H112.714V14.1049H112.906C113.243 13.0396 113.819 12.2186 114.636 11.6418C115.461 11.0571 116.403 10.7647 117.46 10.7647C117.7 10.7647 117.969 10.7767 118.265 10.8008C118.569 10.8168 118.822 10.8448 119.022 10.8849V14.8859C118.838 14.8219 118.545 14.7658 118.145 14.7177C117.752 14.6617 117.372 14.6336 117.003 14.6336C116.21 14.6336 115.497 14.8058 114.865 15.1503C114.24 15.4867 113.747 15.9553 113.387 16.556C113.026 17.1568 112.846 17.8497 112.846 18.6347V29.4844H108.497ZM123.316 36.4051C122.723 36.4051 122.174 36.3571 121.67 36.2609C121.173 36.1728 120.776 36.0687 120.48 35.9485L121.489 32.5603C122.122 32.7445 122.687 32.8326 123.184 32.8246C123.68 32.8166 124.117 32.6604 124.493 32.356C124.878 32.0596 125.202 31.563 125.466 30.8661L125.839 29.8689L119.146 11.0291H123.76L128.014 24.9667H128.206L132.471 11.0291H137.097L129.708 31.7192C129.363 32.6964 128.907 33.5335 128.338 34.2304C127.769 34.9353 127.072 35.4719 126.247 35.8404C125.43 36.2169 124.453 36.4051 123.316 36.4051Z" fill="black"/>
<path d="M138.438 29.4844V4.87729H142.896V25.7477H153.734V29.4844H138.438ZM160.86 29.8568C159.691 29.8568 158.637 29.6486 157.7 29.2321C156.771 28.8075 156.034 28.1827 155.489 27.3577C154.953 26.5326 154.684 25.5154 154.684 24.3058C154.684 23.2645 154.876 22.4034 155.261 21.7226C155.645 21.0417 156.17 20.497 156.835 20.0885C157.5 19.68 158.249 19.3716 159.082 19.1633C159.923 18.9471 160.792 18.7909 161.689 18.6947C162.77 18.5826 163.648 18.4825 164.32 18.3944C164.993 18.2982 165.482 18.1541 165.786 17.9618C166.099 17.7616 166.255 17.4532 166.255 17.0367V16.9646C166.255 16.0594 165.986 15.3585 165.45 14.8619C164.913 14.3653 164.14 14.117 163.131 14.117C162.066 14.117 161.22 14.3493 160.596 14.8138C159.979 15.2784 159.562 15.8271 159.346 16.4599L155.285 15.8832C155.605 14.7618 156.134 13.8246 156.871 13.0716C157.608 12.3107 158.509 11.742 159.574 11.3655C160.64 10.981 161.817 10.7888 163.107 10.7888C163.996 10.7888 164.881 10.8929 165.762 11.1012C166.643 11.3094 167.448 11.6539 168.177 12.1345C168.906 12.6071 169.491 13.2519 169.931 14.0689C170.38 14.8859 170.604 15.9072 170.604 17.1328V29.4844H166.423V26.9492H166.279C166.015 27.4618 165.642 27.9424 165.161 28.391C164.689 28.8316 164.092 29.188 163.371 29.4603C162.658 29.7247 161.821 29.8568 160.86 29.8568ZM161.989 26.6608C162.863 26.6608 163.619 26.4886 164.26 26.1442C164.901 25.7917 165.394 25.3271 165.738 24.7504C166.091 24.1737 166.267 23.5449 166.267 22.864V20.6893C166.131 20.8014 165.898 20.9055 165.57 21.0017C165.25 21.0978 164.889 21.1819 164.489 21.254C164.088 21.3261 163.692 21.3902 163.299 21.4462C162.907 21.5023 162.566 21.5504 162.278 21.5904C161.629 21.6785 161.048 21.8227 160.536 22.023C160.023 22.2232 159.618 22.5036 159.322 22.864C159.026 23.2165 158.877 23.673 158.877 24.2337C158.877 25.0348 159.17 25.6395 159.755 26.048C160.339 26.4566 161.084 26.6608 161.989 26.6608ZM177.466 18.6707V29.4844H173.117V11.0291H177.274V14.165H177.49C177.915 13.1317 178.592 12.3107 179.521 11.7019C180.458 11.0931 181.616 10.7888 182.993 10.7888C184.267 10.7888 185.376 11.0611 186.322 11.6058C187.275 12.1505 188.012 12.9395 188.532 13.9728C189.061 15.0061 189.321 16.2597 189.313 17.7335V29.4844H184.964V18.4064C184.964 17.1728 184.643 16.2076 184.003 15.5107C183.37 14.8138 182.493 14.4654 181.371 14.4654C180.61 14.4654 179.934 14.6336 179.341 14.97C178.756 15.2985 178.295 15.7751 177.959 16.3998C177.631 17.0246 177.466 17.7816 177.466 18.6707ZM200.044 29.8448C198.194 29.8448 196.596 29.4603 195.25 28.6914C193.913 27.9144 192.883 26.817 192.162 25.3992C191.441 23.9734 191.081 22.2953 191.081 20.3649C191.081 18.4665 191.441 16.8004 192.162 15.3665C192.891 13.9247 193.909 12.8033 195.214 12.0023C196.52 11.1933 198.054 10.7888 199.816 10.7888C200.954 10.7888 202.027 10.973 203.036 11.3415C204.053 11.7019 204.951 12.2626 205.728 13.0236C206.513 13.7845 207.129 14.7538 207.578 15.9313C208.026 17.1007 208.251 18.4945 208.251 20.1125V21.4462H193.124V18.5145H204.081C204.073 17.6815 203.893 16.9405 203.541 16.2917C203.188 15.6349 202.696 15.1182 202.063 14.7418C201.438 14.3653 200.709 14.177 199.876 14.177C198.987 14.177 198.206 14.3933 197.533 14.8259C196.86 15.2504 196.336 15.8111 195.959 16.508C195.591 17.1969 195.403 17.9538 195.394 18.7789V21.3381C195.394 22.4114 195.591 23.3326 195.983 24.1016C196.376 24.8625 196.924 25.4473 197.629 25.8558C198.334 26.2563 199.159 26.4566 200.104 26.4566C200.737 26.4566 201.31 26.3684 201.823 26.1922C202.335 26.008 202.78 25.7396 203.156 25.3872C203.533 25.0348 203.817 24.5982 204.009 24.0775L208.071 24.5341C207.814 25.6075 207.326 26.5447 206.605 27.3457C205.892 28.1387 204.979 28.7555 203.865 29.196C202.752 29.6286 201.478 29.8448 200.044 29.8448Z" fill="#0D6D5A"/>
</svg>
